<svg id="visual" viewBox="0 0 600 900" width="600" height="900" xmlns="http://www.w3.org/2000/svg" xmlns:xlink="http://www.w3.org/1999/xlink" version="1.1"><rect x="0" y="0" width="600" height="900" fill="#FFFFFF"></rect><g transform="translate(574.758489655333 -38.60641753793806)"><path d="M128.4 -202.9C180.8 -192.1 247.6 -186.8 280.4 -153.9C313.2 -121 312.1 -60.5 293.2 -10.9C274.3 38.7 237.6 77.3 216.4 130.4C195.3 183.6 189.6 251.1 156.2 294.3C122.7 337.5 61.3 356.2 13.3 333.3C-34.8 310.3 -69.7 245.7 -120.8 212.7C-171.9 179.7 -239.2 178.3 -253.1 148.2C-266.9 118 -227.2 59 -208.4 10.8C-189.7 -37.3 -191.8 -74.7 -188.7 -123.5C-185.7 -172.2 -177.3 -232.5 -145 -254.8C-112.7 -277.1 -56.3 -261.6 -9.2 -245.7C38 -229.8 76 -213.6 128.4 -202.9" fill="#c9fff3"></path></g></svg>